# xmcd
#
# Track frame offsets: 
#        150
#        9730
#        22647
#        38262
#        53782
#        69627
#        85662
#        102140
#        116837
#        128865
#        144602
#        161395
#        201380
#        218725
#        233530
#        247687
#        263597
#        278520
#        303097
#        316822
#        332215
#
# Disc length: 4707 seconds
#
# Revision: 5
# Processed by: cddbd v1.5.2PL0 Copyright (c) Steve Scherf et al.
# Submitted via: ExactAudioCopy v0.99pb4
#
DISCID=08126115
DTITLE=Bobby "Blue" Bland - The Anthology [disc 2]
DYEAR=2001
DGENRE=Soul-Blues
TTITLE0=Poverty
TTITLE1=You're All I Need
TTITLE2=That Did It
TTITLE3=Driftin' Blues
TTITLE4=Save Your Love for Me
TTITLE5=Rockin' in the Same Old Boat
TTITLE6=Ask Me 'bout Nothing (but the Blues)
TTITLE7=Chains of Love
TTITLE8=If You Got a Heart
TTITLE9=Do What You Set Out to Do
TTITLE10=Goin' Down Slow
TTITLE11=This Time I'm Gone for Good [live]
TTITLE12=Ain't No Love in the Heart of the City
TTITLE13=I Wouldn't Treat a Dog (the Way You Treated Me)
TTITLE14=Yolanda
TTITLE15=I Take It on Home
TTITLE16=It Ain't the Real Thing
TTITLE17=Let the Good Times Roll [live, with B.B. King]
TTITLE18=The Soul of a Man
TTITLE19=Soon as the Weather Breaks
TTITLE20=Recess in Heaven
EXTD=Bobby "Blue" Bland [b.1930]: vocals\nRecorded 1956/1966 [CD1] 
EXTD=and 1966/1982 [CD2].\nDisc 2/tracks 11,15,17,19,20 are stereo 
EXTD=single edits.\nDisc 2/track 12 previously unissued.\nCompilation 
EXTD=compiled and produced by Andy McKaie.\nDigitally remastered from 
EXTD=original masters by Erick Labson at Universal Mastering Studios--
EXTD=West, North Hollywood US-CA.\n2CD: MCA 112596 (2001-06-05), UPC 0
EXTD=08811259624, BMG D240529.
EXTT0=(Dave Clark/Pearl Woods)
EXTT1=(Pearl Woods)
EXTT2=(Dave Clark/Pearl Woods)
EXTT3=(Johnny Moore/Eddie Williams/Charles Brown)
EXTT4=(Buddy Johnson)
EXTT5=(Deadric Malone)
EXTT6=(Deadric Malone/Henry Boozier)
EXTT7=(Ahmet Nugetre)
EXTT8=(Deadric Malone)
EXTT9=(Deadric Malone)
EXTT10=(James B. Oden)
EXTT11=(Deadric Malone/Oscar Perry)
EXTT12=(Michael Price/Dan Walsh)
EXTT13=(Michael Price/Dan Walsh/Steve Barri/Michael Omartian)
EXTT14=(Daniel Moore)
EXTT15=(Kenny O'Dell)
EXTT16=(Michael Price/Dan Walsh)
EXTT17=(Fleecie Moore/Sam Theard)
EXTT18=(Bobby Bland/Al Braggs)
EXTT19=(Bobby Bland/Vee Pea/Margie Evans)
EXTT20=(Vee Pea/Joyce Stiger)
PLAYORDER=
